<svg width="920" height="560" viewBox="0 0 920 560" fill="none" xmlns="http://www.w3.org/2000/svg">
  <rect width="920" height="560" fill="#E8EEF0"/>
  <path d="M144 278C173 172 283 91 427 80C564 70 702 133 763 233C824 333 777 442 658 486C542 529 376 509 254 455C163 415 120 361 144 278Z" fill="#FDF8EF" stroke="#C9D0D1" stroke-width="3"/>
  <path d="M189 294C218 215 314 145 430 137C557 128 667 181 716 264C764 346 730 419 640 451C539 487 389 473 288 426C218 394 172 346 189 294Z" fill="#F6EFE0"/>
  <path d="M272 366C365 299 489 280 632 309" stroke="#D8C9A8" stroke-width="11" stroke-linecap="round" stroke-dasharray="2 24"/>
  <path d="M383 143C446 197 468 260 442 334" stroke="#D8C9A8" stroke-width="11" stroke-linecap="round" stroke-dasharray="2 24"/>
  <circle cx="292" cy="171" r="20" fill="#C77D6C" stroke="#FFF7E7" stroke-width="8"/>
  <circle cx="694" cy="232" r="20" fill="#C77D6C" stroke="#FFF7E7" stroke-width="8"/>
  <circle cx="650" cy="406" r="20" fill="#C77D6C" stroke="#FFF7E7" stroke-width="8"/>
  <circle cx="420" cy="284" r="20" fill="#5D7A63" stroke="#FFF7E7" stroke-width="8"/>
  <circle cx="232" cy="342" r="20" fill="#8B6A3D" stroke="#FFF7E7" stroke-width="8"/>
  <text x="250" y="138" fill="#74694E" font-family="Georgia, serif" font-size="28">Aewol</text>
  <text x="646" y="195" fill="#74694E" font-family="Georgia, serif" font-size="28">Udo</text>
  <text x="615" y="456" fill="#74694E" font-family="Georgia, serif" font-size="28">Seogwipo</text>
  <text x="386" y="251" fill="#74694E" font-family="Georgia, serif" font-size="28">Hallasan</text>
  <text x="178" y="392" fill="#74694E" font-family="Georgia, serif" font-size="28">Osulloc</text>
  <text x="34" y="505" fill="#A7AFB0" font-family="Arial, sans-serif" font-size="24">Jeju travel map · 6/18-6/22</text>
</svg>
