<svg xmlns="http://www.w3.org/2000/svg" viewBox="0 0 460 360" role="img" aria-labelledby="title desc">
  <title id="title">Tainan retreat illustration</title>
  <desc id="desc">A quiet Tainan city scene with a meeting table, train, and old street shapes.</desc>
  <rect width="460" height="360" fill="#f7efe4"/>
  <circle cx="356" cy="76" r="50" fill="#e6b45f" opacity=".8"/>
  <path d="M42 282h376v38H42z" fill="#24433b"/>
  <path d="M78 162h82v120H78z" fill="#d66f4d"/>
  <path d="M93 179h20v30H93zm34 0h20v30h-20zm-34 48h20v30H93zm34 0h20v30h-20z" fill="#ffe8c8"/>
  <path d="M188 112h126v170H188z" fill="#fffdf7" stroke="#24433b" stroke-width="6"/>
  <path d="M208 136h86v18h-86zm0 34h66v14h-66zm0 28h78v14h-78z" fill="#5f806e"/>
  <path d="M336 188h58v94h-58z" fill="#6e9aa7"/>
  <path d="M350 206h28v28h-28zm0 42h28v18h-28z" fill="#fffdf7"/>
  <path d="M64 282c16-38 40-57 72-57 28 0 49 17 63 50 14-22 36-33 66-33 37 0 67 14 89 40z" fill="#efddbf"/>
  <path d="M123 300h214" stroke="#fffdf7" stroke-width="14" stroke-linecap="round"/>
  <path d="M162 301c18-22 47-34 87-34s70 12 90 34" fill="none" stroke="#b85636" stroke-width="10" stroke-linecap="round"/>
  <circle cx="177" cy="306" r="12" fill="#24433b"/>
  <circle cx="324" cy="306" r="12" fill="#24433b"/>
  <path d="M92 121h92" stroke="#24433b" stroke-width="9" stroke-linecap="round"/>
  <path d="M107 102h62" stroke="#24433b" stroke-width="9" stroke-linecap="round"/>
  <path d="M118 84h40" stroke="#24433b" stroke-width="9" stroke-linecap="round"/>
  <path d="M250 77c20-14 48-14 68 0 18 13 42 13 60 0" fill="none" stroke="#b85636" stroke-width="8" stroke-linecap="round"/>
</svg>
